<mxfile host="app.diagrams.net" modified="2020-08-23T13:59:49.883Z" agent="5.0 (Windows NT 10.0; Win64; x64) AppleWebKit/537.36 (KHTML, like Gecko) Chrome/85.0.4183.76 Safari/537.36 Edg/85.0.564.40" etag="8XN943GpPgIkDwG5bvg4" version="13.6.4" type="github">
  <diagram id="LftaEop8yXPMGZ8j59oG" name="Page-1">
    <mxGraphModel dx="1022" dy="507" grid="1" gridSize="10" guides="1" tooltips="1" connect="1" arrows="1" fold="1" page="1" pageScale="1" pageWidth="850" pageHeight="1100" math="0" shadow="0">
      <root>
        <mxCell id="0" />
        <mxCell id="1" parent="0" />
        <mxCell id="7eVDSvvghMcODyL4zaLO-3" value="" style="edgeStyle=orthogonalEdgeStyle;rounded=0;orthogonalLoop=1;jettySize=auto;html=1;" parent="1" source="7eVDSvvghMcODyL4zaLO-1" target="7eVDSvvghMcODyL4zaLO-2" edge="1">
          <mxGeometry relative="1" as="geometry" />
        </mxCell>
        <mxCell id="7eVDSvvghMcODyL4zaLO-1" value="START(startGUI)" style="rounded=1;whiteSpace=wrap;html=1;" parent="1" vertex="1">
          <mxGeometry x="360" y="40" width="120" height="60" as="geometry" />
        </mxCell>
        <mxCell id="7eVDSvvghMcODyL4zaLO-5" value="" style="edgeStyle=orthogonalEdgeStyle;rounded=0;orthogonalLoop=1;jettySize=auto;html=1;" parent="1" source="7eVDSvvghMcODyL4zaLO-2" target="7eVDSvvghMcODyL4zaLO-4" edge="1">
          <mxGeometry relative="1" as="geometry" />
        </mxCell>
        <mxCell id="7eVDSvvghMcODyL4zaLO-2" value="Use tkinter to display&lt;br&gt;1. Upload.py&lt;br&gt;2. Train.py&lt;br&gt;3. Recognize.py&lt;br&gt;4. Open attendance xl sheet" style="whiteSpace=wrap;html=1;rounded=1;" parent="1" vertex="1">
          <mxGeometry x="290" y="120" width="260" height="110" as="geometry" />
        </mxCell>
        <mxCell id="7eVDSvvghMcODyL4zaLO-4" value="END" style="rounded=1;whiteSpace=wrap;html=1;" parent="1" vertex="1">
          <mxGeometry x="360" y="270" width="120" height="60" as="geometry" />
        </mxCell>
        <mxCell id="Fh4UxpDwOTjiPx0inQ2w-1" value="" style="endArrow=classic;html=1;exitX=1;exitY=0.5;exitDx=0;exitDy=0;entryX=0.067;entryY=0.344;entryDx=0;entryDy=0;entryPerimeter=0;" edge="1" parent="1" source="7eVDSvvghMcODyL4zaLO-2" target="Fh4UxpDwOTjiPx0inQ2w-2">
          <mxGeometry width="50" height="50" relative="1" as="geometry">
            <mxPoint x="610" y="200" as="sourcePoint" />
            <mxPoint x="600" y="175" as="targetPoint" />
          </mxGeometry>
        </mxCell>
        <mxCell id="Fh4UxpDwOTjiPx0inQ2w-2" value="It uses&amp;nbsp;&lt;br&gt;tkinter.Button to&amp;nbsp;&lt;br&gt;create button" style="ellipse;shape=cloud;whiteSpace=wrap;html=1;" vertex="1" parent="1">
          <mxGeometry x="650" y="110" width="130" height="130" as="geometry" />
        </mxCell>
      </root>
    </mxGraphModel>
  </diagram>
</mxfile>
